<svg width="375" height="331" viewBox="0 0 375 331" fill="none" xmlns="http://www.w3.org/2000/svg">
<path fill-rule="evenodd" clip-rule="evenodd" d="M155.32 318.355C96.601 293.974 55.1382 234.54 55.1382 165.089C55.1382 95.6379 96.601 36.2035 155.32 11.823C76.2053 14.4279 12.2173 81.6899 12.2173 165.089C12.2173 248.488 76.2052 315.75 155.32 318.355ZM307.949 165.089C307.949 240.391 255.782 302.538 187.416 315.812C119.05 302.538 66.8829 240.391 66.8829 165.089C66.8829 89.7866 119.05 27.6399 187.416 14.3654C255.782 27.6399 307.949 89.7866 307.949 165.089ZM219.512 11.823C278.231 36.2035 319.694 95.6379 319.694 165.089C319.694 234.54 278.231 293.974 219.512 318.355C298.627 315.75 362.615 248.488 362.615 165.089C362.615 81.6899 298.627 14.4279 219.512 11.823ZM187.416 327.767C178.535 329.352 169.402 330.178 160.083 330.178C71.9327 330.178 0.472656 256.265 0.472656 165.089C0.472656 73.9128 71.9327 0 160.083 0C169.402 0 178.535 0.826062 187.416 2.41125C196.297 0.826062 205.43 0 214.749 0C302.899 0 374.359 73.9128 374.359 165.089C374.359 256.265 302.899 330.178 214.749 330.178C205.43 330.178 196.297 329.352 187.416 327.767Z" fill="url(#paint0_angular_188_1670)"/>
<path fill-rule="evenodd" clip-rule="evenodd" d="M180.618 86.9787L131.142 214.978C130.264 217.31 128.697 219.318 126.439 221.002C124.181 222.621 121.924 223.431 119.666 223.431C119.227 223.431 119.008 223.658 119.008 224.111C119.008 224.565 119.227 224.791 119.666 224.791H158.704C159.143 224.791 159.362 224.565 159.362 224.111C159.362 223.658 159.143 223.431 158.704 223.431C156.572 223.431 155.098 222.751 154.283 221.391C153.279 219.836 153.217 217.86 154.095 215.463L166.982 182.233L167.452 180.873C167.452 180.873 174.179 162.828 180.618 145.602V86.9787ZM194.391 145.437C200.957 162.712 207.842 180.873 207.842 180.873L208.32 182.233L221.424 215.463C222.316 217.86 222.252 219.836 221.232 221.391C220.403 222.751 218.905 223.431 216.737 223.431C216.29 223.431 216.067 223.658 216.067 224.111C216.067 224.565 216.29 224.791 216.737 224.791H256.43C256.877 224.791 257.1 224.565 257.1 224.111C257.1 223.658 256.877 223.431 256.43 223.431C254.135 223.431 251.839 222.621 249.544 221.002C247.248 219.318 245.654 217.31 244.761 214.978L194.391 86.8184V145.437Z" fill="white"/>
<defs>
<radialGradient id="paint0_angular_188_1670" cx="0" cy="0" r="1" gradientUnits="userSpaceOnUse" gradientTransform="translate(187.416 165.089) scale(186.943 165.089)">
<stop stop-color="#9156CA"/>
<stop offset="0.125" stop-color="#F8BDDA"/>
<stop offset="0.26" stop-color="#D06AFF"/>
<stop offset="0.405" stop-color="#5D51FF"/>
<stop offset="0.55" stop-color="#3AA3FF"/>
<stop offset="0.645" stop-color="#5D51FF"/>
<stop offset="0.7" stop-color="#4441B3"/>
<stop offset="0.85" stop-color="#FCB3F4"/>
<stop offset="1" stop-color="#9156CA"/>
</radialGradient>
</defs>
</svg>
